<?xml version="1.0" encoding="utf-8"?>
<!-- Generator: Adobe Illustrator 16.0.4, SVG Export Plug-In . SVG Version: 6.00 Build 0)  -->
<!DOCTYPE svg PUBLIC "-//W3C//DTD SVG 1.1//EN" "http://www.w3.org/Graphics/SVG/1.1/DTD/svg11.dtd">
<svg version="1.1" id="Layer_1" xmlns="http://www.w3.org/2000/svg" xmlns:xlink="http://www.w3.org/1999/xlink" x="0px" y="0px"
	 width="1024px" height="217px" viewBox="0 0 1024 217" enable-background="new 0 0 1024 217" xml:space="preserve">
<g>
	<rect x="63" y="43" fill="#FFFFFF" width="141" height="141"/>
	<g>
		<path fill="#FF0000" stroke="#FF0000" stroke-miterlimit="10" d="M133.99,5.33C77.011,5.33,30.819,51.521,30.819,108.5
			c0,56.978,46.192,103.169,103.171,103.169S237.16,165.479,237.16,108.5C237.16,51.521,190.968,5.33,133.99,5.33z M193.5,128.5h-40
			v40h-43v-40h-40v-40h40v-40h43v40h40V128.5z"/>
		<g>
			<path d="M276.165,153.428v-122.2l83.442,87.296V39.009h17.267v121.384l-83.442-87.073v80.108H276.165z"/>
			<path d="M421.559,39.009v68.867c0,9.825,1.605,17.007,4.817,21.548c4.791,6.566,11.535,9.85,20.23,9.85
				c8.745,0,15.513-3.283,20.305-9.85c3.21-4.393,4.817-11.576,4.817-21.548V39.009h17.266v73.661
				c0,12.055-3.755,21.985-11.264,29.79c-8.448,8.697-18.823,13.043-31.125,13.043c-12.301,0-22.652-4.346-31.05-13.043
				c-7.51-7.805-11.264-17.734-11.264-29.79V39.009H421.559z"/>
			<path d="M555.172,104.666l35.422,48.762h-21.121l-32.68-46.835h-3.113v46.835h-17.266V39.009h20.23
				c15.117,0,26.035,2.841,32.754,8.522c7.412,6.324,11.117,14.673,11.117,25.048c0,8.103-2.322,15.069-6.967,20.897
				C568.904,99.306,562.779,103.036,555.172,104.666z M533.68,91.549h5.484c16.352,0,24.529-6.249,24.529-18.749
				c0-11.708-7.955-17.563-23.861-17.563h-6.152V91.549z"/>
			<path d="M672.479,55.979l-14.006,8.3c-2.619-4.545-5.113-7.509-7.484-8.893c-2.471-1.58-5.657-2.371-9.56-2.371
				c-4.793,0-8.771,1.36-11.932,4.079c-3.162,2.67-4.742,6.032-4.742,10.085c0,5.587,4.149,10.085,12.449,13.496l11.412,4.672
				c9.288,3.758,16.081,8.344,20.38,13.757c4.298,5.415,6.446,12.051,6.446,19.911c0,10.531-3.508,19.232-10.522,26.105
				c-7.065,6.922-15.834,10.381-26.308,10.381c-9.93,0-18.131-2.953-24.603-8.859c-6.373-5.9-10.351-14.188-11.932-24.857
				l17.489-3.854c0.79,6.719,2.174,11.363,4.15,13.932c3.557,4.939,8.744,7.41,15.562,7.41c5.385,0,9.856-1.803,13.413-5.406
				c3.558-3.602,5.336-8.17,5.336-13.699c0-2.221-0.31-4.258-0.927-6.109c-0.618-1.851-1.581-3.555-2.89-5.109
				c-1.31-1.555-3.002-3.012-5.076-4.369c-2.075-1.357-4.546-2.654-7.411-3.888l-11.041-4.591
				c-15.662-6.615-23.492-16.292-23.492-29.028c0-8.589,3.285-15.773,9.856-21.549c6.57-5.825,14.747-8.738,24.529-8.738
				C654.769,36.786,665.069,43.184,672.479,55.979z"/>
			<path d="M759.405,55.238h-45.872v27.493h44.538V98.96h-44.538v38.237h45.872v16.23h-63.138V39.009h63.138V55.238z"/>
			<path fill="#FF0000" d="M802.461,157.355l-12.673-9.412l27.346-37.275c-1.482,0.198-2.742,0.346-3.78,0.445
				c-1.037,0.1-1.878,0.148-2.52,0.148c-9.238,0-17.242-3.531-24.01-10.597c-6.719-7.014-10.078-15.462-10.078-25.344
				c0-10.523,3.729-19.514,11.189-26.974c7.509-7.509,16.5-11.264,26.975-11.264c10.424,0,19.489,3.705,27.196,11.116
				c7.707,7.362,11.561,16.057,11.561,26.085c0,8.893-3.755,18.502-11.264,28.827L802.461,157.355z M793.567,74.061
				c0,6.176,2.1,11.363,6.3,15.562c4.248,4.25,9.361,6.373,15.34,6.373c5.977,0,11.065-2.099,15.266-6.299
				c4.248-4.249,6.373-9.362,6.373-15.34c0-5.977-2.125-11.09-6.373-15.34c-4.2-4.199-9.313-6.299-15.34-6.299
				c-5.929,0-10.993,2.1-15.191,6.299C795.691,63.267,793.567,68.28,793.567,74.061z"/>
			<path fill="#FF0000" d="M892.054,55.238h-19.786l9.485-16.229h27.566v114.419h-17.266V55.238z"/>
			<path fill="#FF0000" d="M963.565,55.238h-19.786l9.485-16.229h27.566v114.419h-17.266V55.238z"/>
		</g>
	</g>
</g>
</svg>
